<?xml version="1.0" encoding="utf-8"?>
<!-- Generator: Adobe Illustrator 26.3.1, SVG Export Plug-In . SVG Version: 6.00 Build 0)  -->
<svg version="1.1" id="Calque_1" xmlns="http://www.w3.org/2000/svg" xmlns:xlink="http://www.w3.org/1999/xlink" x="0px" y="0px"
	 viewBox="0 0 64 64" style="enable-background:new 0 0 64 64;" xml:space="preserve">
<style type="text/css">
	.st0{fill:#52B049;}
	.st1{fill:#00B1CA;}
</style>
<g>
	<path class="st0" d="M26.9,42.9c3.2,0,6.1-0.5,8.6-1.5c2.5-1,4.5-2.4,5.8-4.2c1.4-1.8,2.1-3.9,2.1-6.2c0-1-0.3-1.8-0.8-2.4
		c-0.5-0.7-1.2-1-2.1-1c0,0.2,0.1,0.8,0.1,1.7c0,2.1-0.6,4.1-1.7,5.7c-1.2,1.7-2.8,3-4.8,3.9c-2.1,0.9-4.4,1.4-7.1,1.4
		c-2.5,0-4.8-0.5-6.8-1.4c-2-0.9-3.6-2.2-4.7-3.8c-1.1-1.6-1.7-3.5-1.7-5.6v-16c0-2.1,0.6-3.9,1.7-5.5C16.5,6.2,18,5,20,4.1
		c2-0.9,4.3-1.3,6.8-1.3c2.6,0,4.9,0.5,6.9,1.4c2,0.9,3.6,2.2,4.7,3.8c1.1,1.6,1.7,3.5,1.7,5.6c0,1,0,1.5-0.1,1.7
		c0.9-0.1,1.6-0.4,2.1-1c0.5-0.6,0.8-1.2,0.8-2c0-2.4-0.7-4.5-2.1-6.4c-1.4-1.9-3.3-3.3-5.8-4.4C32.8,0.5,30,0,26.9,0
		c-3.1,0-5.9,0.6-8.4,1.7c-2.5,1.1-4.4,2.7-5.8,4.7c-1.4,2-2.1,4.3-2.1,6.9v16c0,2.6,0.7,5,2.1,7c1.4,2,3.3,3.6,5.8,4.8
		C20.9,42.3,23.7,42.9,26.9,42.9"/>
	<path class="st1" d="M37.1,64c-3.2,0-6.1-0.5-8.6-1.5c-2.5-1-4.5-2.4-5.8-4.2c-1.4-1.8-2.1-3.9-2.1-6.2c0-1,0.3-1.8,0.8-2.4
		c0.5-0.7,1.2-1,2.1-1c0,0.2-0.1,0.8-0.1,1.7c0,2.1,0.6,4.1,1.7,5.7c1.2,1.7,2.8,3,4.8,3.9c2.1,0.9,4.4,1.4,7.1,1.4
		c2.5,0,4.8-0.5,6.8-1.4c2-0.9,3.6-2.2,4.7-3.8c1.1-1.6,1.7-3.5,1.7-5.6v-16c0-2.1-0.6-3.9-1.7-5.5c-1.1-1.6-2.7-2.9-4.7-3.8
		c-2-0.9-4.3-1.3-6.8-1.3c-2.6,0-4.9,0.5-6.9,1.4c-2,0.9-3.6,2.2-4.7,3.8c-1.1,1.6-1.7,3.5-1.7,5.6c0,1,0,1.5,0.1,1.7
		c-0.9-0.1-1.6-0.4-2.1-1c-0.5-0.6-0.8-1.2-0.8-2c0-2.4,0.7-4.5,2.1-6.4c1.4-1.9,3.3-3.3,5.8-4.4c2.5-1,5.3-1.6,8.4-1.6
		c3.1,0,5.9,0.6,8.4,1.7c2.5,1.1,4.4,2.7,5.8,4.7c1.4,2,2.1,4.3,2.1,6.9v16c0,2.6-0.7,5-2.1,7c-1.4,2-3.3,3.6-5.8,4.8
		C43.1,63.4,40.3,64,37.1,64"/>
</g>
</svg>
