<?xml version="1.0" encoding="utf-8"?>
<!-- Generator: Adobe Illustrator 26.3.1, SVG Export Plug-In . SVG Version: 6.00 Build 0)  -->
<svg version="1.1" id="Calque_1" xmlns="http://www.w3.org/2000/svg" xmlns:xlink="http://www.w3.org/1999/xlink" x="0px" y="0px"
	 viewBox="0 0 64 64" style="enable-background:new 0 0 64 64;" xml:space="preserve">
<style type="text/css">
	.st0{fill:#00008B;}
	.st1{fill:#52B049;}
	.st2{fill:#00B1CA;}
</style>
<path class="st0" d="M59,64H5c-2.8,0-5-2.3-5-5V5c0-2.8,2.3-5,5-5H59c2.8,0,5,2.3,5,5V59C64,61.7,61.7,64,59,64z"/>
<g>
	<path class="st1" d="M27.2,42.2c3,0,5.7-0.5,8-1.4s4.2-2.2,5.4-3.9c1.3-1.7,2-3.6,2-5.8c0-0.9-0.3-1.7-0.7-2.2
		c-0.5-0.7-1.1-0.9-2-0.9c0,0.2,0.1,0.7,0.1,1.6c0,2-0.6,3.8-1.6,5.3c-1.1,1.6-2.6,2.8-4.5,3.6c-2,0.8-4.1,1.3-6.6,1.3
		c-2.3,0-4.5-0.5-6.3-1.3s-3.4-2.1-4.4-3.5c-1-1.5-1.6-3.3-1.6-5.2V14.8c0-2,0.6-3.6,1.6-5.1C17.6,8,19,6.8,20.8,6s4-1.2,6.3-1.2
		c2.4,0,4.6,0.5,6.4,1.3c1.9,0.8,3.4,2.1,4.4,3.5s1.6,3.3,1.6,5.2c0,0.9,0,1.4-0.1,1.6c0.8-0.1,1.5-0.4,2-0.9
		c0.5-0.6,0.7-1.1,0.7-1.9c0-2.2-0.7-4.2-2-6s-3.1-3.1-5.4-4.1c-2.1-0.9-4.7-1.4-7.6-1.4s-5.5,0.6-7.8,1.6S15.3,6.3,14,8.1
		s-2,4-2,6.4v14.9c0,2.4,0.7,4.7,2,6.5c1.3,1.9,3.1,3.4,5.4,4.5C21.7,41.6,24.3,42.2,27.2,42.2"/>
	<path class="st2" d="M36.8,61.8c-3,0-5.7-0.5-8-1.4c-2.3-0.9-4.2-2.2-5.4-3.9c-1.3-1.7-2-3.6-2-5.8c0-0.9,0.3-1.7,0.7-2.2
		c0.5-0.7,1.1-0.9,2-0.9c0,0.2-0.1,0.7-0.1,1.6c0,2,0.6,3.8,1.6,5.3c1.1,1.6,2.6,2.8,4.5,3.6c2,0.8,4.1,1.3,6.6,1.3
		c2.3,0,4.5-0.5,6.3-1.3c1.9-0.8,3.4-2.1,4.4-3.5c1-1.5,1.6-3.3,1.6-5.2V34.4c0-2-0.6-3.6-1.6-5.1c-1-1.5-2.5-2.7-4.4-3.5
		c-1.9-0.8-4-1.2-6.3-1.2c-2.4,0-4.6,0.5-6.4,1.3c-1.9,0.8-3.4,2.1-4.4,3.5c-1,1.5-1.6,3.3-1.6,5.2c0,0.9,0,1.4,0.1,1.6
		c-0.8-0.1-1.5-0.4-2-0.9c-0.5-0.6-0.7-1.1-0.7-1.9c0-2.2,0.7-4.2,2-6c1.3-1.8,3.1-3.1,5.4-4.1c2.3-0.9,4.9-1.5,7.8-1.5
		s5.5,0.6,7.8,1.6c2.3,1,4.1,2.5,5.4,4.4c1.3,1.9,2,4,2,6.4v14.9c0,2.4-0.7,4.7-2,6.5c-1.3,1.9-3.1,3.4-5.4,4.5
		C42.4,61.3,39.7,61.8,36.8,61.8"/>
</g>
</svg>
