<?xml version="1.0" encoding="utf-8"?>
<!-- Generator: Adobe Illustrator 26.3.1, SVG Export Plug-In . SVG Version: 6.00 Build 0)  -->
<svg version="1.1" id="Calque_1" xmlns="http://www.w3.org/2000/svg" xmlns:xlink="http://www.w3.org/1999/xlink" x="0px" y="0px"
	 viewBox="0 0 64 64" style="enable-background:new 0 0 64 64;" xml:space="preserve">
<style type="text/css">
	.st0{fill:#FFFFFF;}
	.st1{fill:#52B049;stroke:#52B049;stroke-miterlimit:10;}
	.st2{fill:#00B1CA;stroke:#00B1CA;stroke-miterlimit:10;}
</style>
<path class="st0" d="M50.7,64H13.3C6,64,0,58,0,50.7V13.3C0,6,6,0,13.3,0h37.4C58,0,64,6,64,13.3v37.4C64,58,58,64,50.7,64z"/>
<g>
	<path class="st1" d="M27.7,41.5c2.7,0,5.1-0.4,7.1-1.2c2.1-0.8,3.7-2,4.8-3.5c1.2-1.5,1.7-3.2,1.7-5.1c0-0.8-0.2-1.5-0.7-2
		c-0.4-0.6-1-0.8-1.7-0.8c0,0.2,0.1,0.7,0.1,1.4c0,1.7-0.5,3.4-1.4,4.7c-1,1.4-2.3,2.5-4,3.2c-1.7,0.7-3.6,1.2-5.9,1.2
		c-2.1,0-4-0.4-5.6-1.2c-1.7-0.7-3-1.8-3.9-3.1c-0.9-1.3-1.4-2.9-1.4-4.6V17.2c0-1.7,0.5-3.2,1.4-4.6c0.8-1.5,2.1-2.5,3.7-3.2
		c1.7-0.7,3.6-1.1,5.6-1.1c2.2,0,4.1,0.4,5.7,1.2c1.7,0.7,3,1.8,3.9,3.1c0.9,1.3,1.4,2.9,1.4,4.6c0,0.8,0,1.2-0.1,1.4
		c0.7-0.1,1.3-0.3,1.7-0.8c0.4-0.5,0.7-1,0.7-1.7c0-2-0.6-3.7-1.7-5.3s-2.7-2.7-4.8-3.6C32.6,6.4,30.3,6,27.7,6s-4.9,0.5-7,1.4
		s-3.6,2.2-4.8,3.9c-1.2,1.7-1.7,3.6-1.7,5.7v13.3c0,2.2,0.6,4.1,1.7,5.8s2.7,3,4.8,4C22.8,41,25.1,41.5,27.7,41.5"/>
	<path class="st2" d="M36.2,58c-2.7,0-5.1-0.4-7.1-1.2s-3.7-2-4.8-3.5c-1.2-1.5-1.7-3.2-1.7-5.1c0-0.8,0.2-1.5,0.7-2
		c0.4-0.6,1-0.8,1.7-0.8c0,0.2-0.1,0.7-0.1,1.4c0,1.7,0.5,3.4,1.4,4.7c1,1.4,2.3,2.5,4,3.2c1.7,0.7,3.6,1.2,5.9,1.2
		c2.1,0,4-0.4,5.6-1.2s3-1.8,3.9-3.1c0.9-1.3,1.4-2.9,1.4-4.6V33.7c0-1.7-0.5-3.2-1.4-4.6s-2.2-2.4-3.9-3.1
		c-1.7-0.7-3.6-1.1-5.6-1.1c-2.2,0-4.1,0.4-5.7,1.2c-1.7,0.7-3,1.8-3.9,3.1c-0.9,1.3-1.4,2.9-1.4,4.6c0,0.8,0,1.2,0.1,1.4
		c-0.7-0.1-1.3-0.3-1.7-0.8s-0.7-1-0.7-1.7c0-2,0.6-3.7,1.7-5.3c1.2-1.6,2.7-2.7,4.8-3.6c2.1-0.8,4.4-1.3,7-1.3s4.9,0.5,7,1.4
		c2.1,0.9,3.6,2.2,4.8,3.9c1.2,1.7,1.7,3.6,1.7,5.7v13.3c0,2.2-0.6,4.1-1.7,5.8c-1.2,1.7-2.7,3-4.8,4C41.2,57.5,38.8,58,36.2,58"/>
</g>
</svg>
